<?xml version="1.0" encoding="utf-8"?>
<!-- Generator: Adobe Illustrator 19.0.0, SVG Export Plug-In . SVG Version: 6.00 Build 0)  -->
<svg version="1.1" xmlns="http://www.w3.org/2000/svg" xmlns:xlink="http://www.w3.org/1999/xlink" x="0px" y="0px"
	 viewBox="145 -216.4 1000 679" style="enable-background:new 145 -216.4 1000 679;" xml:space="preserve">
<style type="text/css">
	.st0{fill:#333333;}
	.st1{font-family:'Arial-BoldMT';}
	.st2{font-size:20.143px;}
	.st3{letter-spacing:4.5;}
	.st4{fill:url(#SVGID_3_);}
	.st5{fill:url(#SVGID_4_);}
	.st6{fill:url(#SVGID_5_);}
	.st7{fill:url(#SVGID_6_);}
	.st8{fill:url(#SVGID_7_);}
	.st9{fill:url(#SVGID_8_);}
	.st10{fill:url(#SVGID_9_);}
	.st11{fill:url(#SVGID_10_);}
	.st12{fill:url(#SVGID_11_);}
	.st13{fill:url(#SVGID_12_);}
	.st14{fill:url(#SVGID_13_);}
	.st15{fill:url(#SVGID_14_);}
	.st16{fill:url(#SVGID_15_);}
	.st17{fill:url(#SVGID_16_);}
	.st18{fill:url(#SVGID_17_);}
	.st19{fill:url(#SVGID_18_);}
	.st20{fill:url(#SVGID_19_);}
	.st21{fill:url(#SVGID_20_);}
	.st22{fill:url(#SVGID_21_);}
	.st23{fill:url(#SVGID_22_);}
	.st24{fill:url(#SVGID_23_);}
	.st25{fill:url(#SVGID_24_);}
	.st26{fill:url(#SVGID_25_);}
	.st27{fill:url(#SVGID_26_);}
	.st28{fill:url(#SVGID_27_);}
	.st29{fill:url(#SVGID_28_);}
	.st30{fill:url(#SVGID_29_);}
	.st31{fill:url(#SVGID_30_);}
	.st32{fill:url(#SVGID_31_);}
	.st33{fill:url(#SVGID_32_);}
	.st34{display:none;}
	.st35{display:inline;}
	.st36{fill:#91AC00;}
	.st37{opacity:0.48;}
	.st38{fill:#4A5000;}
	.st39{opacity:0.62;}
	.st40{fill:#BCDF00;}
	.st41{opacity:0.31;}
	.st42{opacity:0.47;}
	.st43{opacity:0.39;}
	.st44{fill:#B0C600;}
	.st45{opacity:0.25;}
	.st46{fill:#6C8900;}
	.st47{opacity:0.28;}
	.st48{fill:#303306;}
	.st49{opacity:0.43;}
	.st50{fill:#596619;}
	.st51{fill:#B2BB00;}
	.st52{opacity:0.19;}
</style>
<g id="svg7491" xmlns:rdf="http://www.w3.org/1999/02/22-rdf-syntax-ns#" xmlns:dc="http://purl.org/dc/elements/1.1/" xmlns:sodipodi="http://sodipodi.sourceforge.net/DTD/sodipodi-0.dtd" xmlns:svg="http://www.w3.org/2000/svg" xmlns:inkscape="http://www.inkscape.org/namespaces/inkscape" xmlns:cc="http://creativecommons.org/ns#" inkscape:export-xdpi="900" inkscape:export-ydpi="900" inkscape:export-filename="/home/agung/Pictures/Fiverr Order/ghetto kitchen/all files/gk1.png" sodipodi:docname="gk2.svg" inkscape:version="0.91 r13725">
	
		<sodipodi:namedview  borderopacity="1.0" id="base" showgrid="false" units="px" inkscape:cy="421.66711" inkscape:cx="413.44369" bordercolor="#666666" pagecolor="#ffffff" inkscape:zoom="0.54427887" inkscape:window-y="24" inkscape:window-width="1301" inkscape:pageopacity="0" inkscape:window-maximized="1" inkscape:pageshadow="2" inkscape:current-layer="layer1" inkscape:window-x="65" inkscape:document-units="px" inkscape:window-height="744">
		</sodipodi:namedview>
	<text transform="matrix(1.3217 0 0 1 337.0322 241.5529)" class="st0 st1 st2 st3">LOCAL PLACE WITH ROYAL TASTE</text>
	<g>
		<defs>
			<path id="SVGID_1_" d="M609.4,156.3c-8,0-14.3,3-18.5,7.7c-4.1,4.7-6.1,10.9-6.1,17.3c0,6.3,2,12.6,6.2,17.4
				c4.1,4.8,10.4,7.9,18.5,7.9c8,0,14.3-3.1,18.4-7.8c4.1-4.7,6.1-11,6.2-17.3c0-6.5-2-12.7-6.1-17.4
				C623.8,159.4,617.5,156.3,609.4,156.3L609.4,156.3z M369.3,156.4c-7.2,0-13.6,2.5-18.1,6.9c-4.5,4.4-7,10.8-7,18.3v0c0,0,0,0,0,0
				c0,6.5,2.1,12.7,6.4,17.4c4.3,4.6,10.7,7.5,18.7,7.5c7.2,0,13.3-2.9,18.3-7.8l0.7-0.7v-14.2h-23.2v7.5h15.4v3.5
				c-3.2,2.6-7.3,4-11.2,4c-5.9,0-10.1-2-13-5.1s-4.3-7.4-4.3-12.1v0v0c0-4.6,1.5-9,4.3-12.2c2.8-3.2,7-5.3,13-5.3
				c4.4,0,9.3,1.7,12.6,5l1.7,1.7l5-5.5l-1.6-1.5C382.2,158.8,375.7,156.4,369.3,156.4L369.3,156.4z M784.9,156.5
				c-8.1,0-14.6,3-18.8,7.8c-4.2,4.7-6.3,11-6.2,17.4v0c0,6.5,2.2,12.6,6.4,17.2c4.3,4.6,10.6,7.4,18.6,7.4c6.4,0,12.9-2.4,17.7-7.3
				l1.6-1.7l-5.6-5.3l-1.6,1.5c-3.4,3.3-7.8,5-12.3,5c-5.9,0-10-2-12.8-5.1c-2.8-3.1-4.3-7.3-4.4-12.1c0,0,0,0,0,0
				c0-4.8,1.5-9.2,4.3-12.3c2.8-3.1,7-5.1,12.9-5.1c4.4,0,8.8,1.6,12.2,5l1.5,1.5l5.8-5l-1.7-1.7C797.8,159,791.3,156.5,784.9,156.5
				L784.9,156.5z M396.8,157v48.8h7.9v-14.6h23.7v14.6h7.9v-2.3V157h-7.9v26.6h-23.7V157L396.8,157L396.8,157z M814.5,157.1V206h7.9
				v-14.6h23.7V206h7.9v-2.3v-46.6h-7.9v26.6h-23.7v-26.6L814.5,157.1L814.5,157.1z M444.6,157v48.8h35.9V198h-28v-7.4h24.8V183
				h-24.8v-18.2h27.2V157H444.6z M655.2,157v48.8h7.9V187l20.2,18.9h7.5v-3.5l-0.7-0.7l-22.5-21.2l21.2-19.9V157h-7.3l-18.4,17.2
				V157L655.2,157L655.2,157z M698.2,157v48.8h7.9v-2.3V157L698.2,157L698.2,157z M865.8,157v48.8h35.9V198h-28v-6.7h24.8v-7.6
				h-24.8v-18.9h27.2V157H865.8L865.8,157z M911,157v2.3v46.6h7.9v-32.5l26.5,32.5h4.7V157h-7.9v32.5L915.8,157L911,157L911,157z
				 M488.6,157.1v7.6h16v41.2h2.3h5.7v-41.2h16v-7.6H488.6L488.6,157.1z M536.7,157.1v7.6h16v41.2h2.3h5.7v-41.2h16v-7.6H536.7z
				 M713.5,157.1v7.6h16v41.2h2.3h5.7v-41.2h16v-7.6H713.5z M609.4,164c5.8,0,9.8,2.1,12.6,5.2c2.8,3.2,4.2,7.5,4.2,12.2
				c0,4.5-1.5,8.9-4.2,12.1c-2.8,3.2-6.8,5.3-12.6,5.3c-5.7,0-9.7-2.1-12.5-5.3s-4.2-7.6-4.2-12.2c0-4.8,1.4-9.1,4.1-12.2
				C599.6,166.1,603.6,164,609.4,164L609.4,164z"/>
		</defs>
		<clipPath id="SVGID_2_">
			<use xlink:href="#SVGID_1_"  style="overflow:visible;"/>
		</clipPath>
		<g style="clip-path:url(#SVGID_2_);enable-background:new    ;">
			
				<image style="overflow:visible;" width="684" height="1217" id="image11121-1" xlink:href="412DB476.png"  transform="matrix(0 -0.8192 -0.9177 0 1104.9291 330.2519)">
			</image>
		</g>
	</g>
	<g>
		
			<linearGradient id="SVGID_3_" gradientUnits="userSpaceOnUse" x1="611.0573" y1="152.4839" x2="610.116" y2="166.1345" gradientTransform="matrix(0.9845 0.1755 -0.1755 0.9845 27.0821 -142.8653)">
			<stop  offset="0" style="stop-color:#8DC642"/>
			<stop  offset="1" style="stop-color:#1D2F1B"/>
		</linearGradient>
		<path class="st4" d="M635.5,126.4c0,0-42.4,1.2-69-16.6c0,0,35,5.3,69.4,14.1L635.5,126.4z"/>
		
			<linearGradient id="SVGID_4_" gradientUnits="userSpaceOnUse" x1="605.7581" y1="143.4881" x2="603.2653" y2="154.29" gradientTransform="matrix(0.9845 0.1755 -0.1755 0.9845 27.0821 -142.8653)">
			<stop  offset="0" style="stop-color:#8DC642"/>
			<stop  offset="1" style="stop-color:#1D2F1B"/>
		</linearGradient>
		<path class="st5" d="M635.1,121.7c0,0-47.6-5.6-76.3-27.7c0,0,38.9,10.9,77,25.2L635.1,121.7z"/>
		
			<linearGradient id="SVGID_5_" gradientUnits="userSpaceOnUse" x1="603.142" y1="129.2425" x2="602.1437" y2="142.8842" gradientTransform="matrix(0.9845 0.1755 -0.1755 0.9845 27.0821 -142.8653)">
			<stop  offset="0" style="stop-color:#8DC642"/>
			<stop  offset="1" style="stop-color:#1D2F1B"/>
		</linearGradient>
		<path class="st6" d="M633,115.7c0,0-46.9-10.9-73.7-36.1c0,0,37.8,15.2,74.5,33.6L633,115.7z"/>
		
			<linearGradient id="SVGID_6_" gradientUnits="userSpaceOnUse" x1="606.0813" y1="121.0528" x2="604.3802" y2="134.3268" gradientTransform="matrix(0.9845 0.1755 -0.1755 0.9845 27.0821 -142.8653)">
			<stop  offset="0" style="stop-color:#8DC642"/>
			<stop  offset="1" style="stop-color:#1D2F1B"/>
		</linearGradient>
		<path class="st7" d="M636.3,109.3c0,0-46-14.9-71.2-42.3c0,0,36.7,18.4,72.1,40L636.3,109.3z"/>
		
			<linearGradient id="SVGID_7_" gradientUnits="userSpaceOnUse" x1="604.2178" y1="106.6509" x2="602.3378" y2="123.2577" gradientTransform="matrix(0.9845 0.1755 -0.1755 0.9845 27.0821 -142.8653)">
			<stop  offset="0" style="stop-color:#8DC642"/>
			<stop  offset="1" style="stop-color:#1D2F1B"/>
		</linearGradient>
		<path class="st8" d="M634.1,101.8c0,0-44.5-20.4-67.2-50.8c0,0,34.9,22.8,68.3,48.6L634.1,101.8z"/>
		
			<linearGradient id="SVGID_8_" gradientUnits="userSpaceOnUse" x1="602.9459" y1="86.3907" x2="597.5117" y2="108.8519" gradientTransform="matrix(0.9845 0.1755 -0.1755 0.9845 27.0821 -142.8653)">
			<stop  offset="0" style="stop-color:#8DC642"/>
			<stop  offset="1" style="stop-color:#1D2F1B"/>
		</linearGradient>
		<path class="st9" d="M633.3,83.8c0,0-43.5-19.7-65.4-49.6c0,0,34.1,22.2,66.6,47.4L633.3,83.8z"/>
		
			<linearGradient id="SVGID_9_" gradientUnits="userSpaceOnUse" x1="602.7723" y1="71.3522" x2="598.142" y2="89.8716" gradientTransform="matrix(0.9893 0.1464 -0.1464 0.9893 21.6029 -118.2436)">
			<stop  offset="0" style="stop-color:#8DC642"/>
			<stop  offset="1" style="stop-color:#1D2F1B"/>
		</linearGradient>
		<path class="st10" d="M634.7,77.2c0,0-42.3-23-62.5-54.6c0,0,32.7,24.7,63.8,52.4L634.7,77.2z"/>
		
			<linearGradient id="SVGID_10_" gradientUnits="userSpaceOnUse" x1="604.9666" y1="72.2375" x2="600.3738" y2="91.9195" gradientTransform="matrix(0.9845 0.1755 -0.1755 0.9845 27.0821 -142.8653)">
			<stop  offset="0" style="stop-color:#8DC642"/>
			<stop  offset="1" style="stop-color:#1D2F1B"/>
		</linearGradient>
		<path class="st11" d="M634.5,67.5c0,0-38.4-21.6-55.5-51.9c0,0,29.3,23.4,56.8,49.8L634.5,67.5z"/>
		
			<linearGradient id="SVGID_11_" gradientUnits="userSpaceOnUse" x1="612.936" y1="75.6945" x2="605.1414" y2="94.7906" gradientTransform="matrix(0.9727 0.2318 -0.2318 0.9727 39.3224 -190.9881)">
			<stop  offset="0" style="stop-color:#8DC642"/>
			<stop  offset="1" style="stop-color:#1D2F1B"/>
		</linearGradient>
		<path class="st12" d="M635.4,58.4c0,0-33.9-20.9-47.2-50c0,0,25.3,22.6,48.6,48L635.4,58.4z"/>
		
			<linearGradient id="SVGID_12_" gradientUnits="userSpaceOnUse" x1="608.8494" y1="53.7504" x2="603.9847" y2="68.3445" gradientTransform="matrix(0.9845 0.1755 -0.1755 0.9845 27.0821 -142.8653)">
			<stop  offset="0" style="stop-color:#8DC642"/>
			<stop  offset="1" style="stop-color:#1D2F1B"/>
		</linearGradient>
		<path class="st13" d="M635.6,49.5c0,0-32.2-24.2-43.4-54.6c0,0,23.5,25.1,45,52.7L635.6,49.5z"/>
		
			<linearGradient id="SVGID_13_" gradientUnits="userSpaceOnUse" x1="617.4932" y1="26.7745" x2="605.5809" y2="47.5371" gradientTransform="matrix(0.9916 0.1295 -0.1295 0.9916 19.5557 -103.837)">
			<stop  offset="0" style="stop-color:#8DC642"/>
			<stop  offset="1" style="stop-color:#1D2F1B"/>
		</linearGradient>
		<path class="st14" d="M636.5,37.1c0,0-24.7-23.1-31.7-49.1c0,0,17.5,22.9,33.1,47.8L636.5,37.1z"/>
		
			<linearGradient id="SVGID_14_" gradientUnits="userSpaceOnUse" x1="618.2715" y1="37.1313" x2="611.5097" y2="45.5833" gradientTransform="matrix(0.9845 0.1755 -0.1755 0.9845 27.0821 -142.8653)">
			<stop  offset="0" style="stop-color:#8DC642"/>
			<stop  offset="1" style="stop-color:#1D2F1B"/>
		</linearGradient>
		<path class="st15" d="M635.4,23.6c0,0-14.5-20.2-16.2-39.6c0,0,9.5,18.9,17.4,38.8L635.4,23.6z"/>
		
			<linearGradient id="SVGID_15_" gradientUnits="userSpaceOnUse" x1="622.0881" y1="25.425" x2="615.0604" y2="34.4607" gradientTransform="matrix(0.9845 0.1755 -0.1755 0.9845 27.0821 -142.8653)">
			<stop  offset="0" style="stop-color:#8DC642"/>
			<stop  offset="1" style="stop-color:#1D2F1B"/>
		</linearGradient>
		<path class="st16" d="M636.8,9.4c0,0-10.5-14.7-11.8-28.8c0,0,6.9,13.8,12.7,28.3L636.8,9.4z"/>
		
			<linearGradient id="SVGID_16_" gradientUnits="userSpaceOnUse" x1="675.9086" y1="137.3462" x2="670.0565" y2="144.8703" gradientTransform="matrix(0.7684 0.6399 -0.6399 0.7684 211.4014 -551.7509)">
			<stop  offset="0" style="stop-color:#8DC642"/>
			<stop  offset="1" style="stop-color:#1D2F1B"/>
		</linearGradient>
		<path class="st17" d="M637.4,3.4c0,0-2.9-19,1.9-32.2C639.3-28.8,638.5-12.7,637.4,3.4L637.4,3.4z"/>
		
			<linearGradient id="SVGID_17_" gradientUnits="userSpaceOnUse" x1="1186.3411" y1="62.8582" x2="1185.4314" y2="76.0524" gradientTransform="matrix(-0.9917 0.129 0.129 0.9917 1834.2668 -99.4529)">
			<stop  offset="0" style="stop-color:#8DC642"/>
			<stop  offset="1" style="stop-color:#1D2F1B"/>
		</linearGradient>
		<path class="st18" d="M631.7,126.3c0,0,42.3,2.8,69.8-13.9c0,0-35.2,3.9-70.1,11.3L631.7,126.3z"/>
		
			<linearGradient id="SVGID_18_" gradientUnits="userSpaceOnUse" x1="1180.9471" y1="53.7861" x2="1178.537" y2="64.2297" gradientTransform="matrix(-0.9917 0.129 0.129 0.9917 1834.2668 -99.4529)">
			<stop  offset="0" style="stop-color:#8DC642"/>
			<stop  offset="1" style="stop-color:#1D2F1B"/>
		</linearGradient>
		<path class="st19" d="M632.4,121.5c0,0,47.8-3.7,77.7-24.6c0,0-39.4,9.3-78.2,22.1L632.4,121.5z"/>
		
			<linearGradient id="SVGID_19_" gradientUnits="userSpaceOnUse" x1="1178.3215" y1="39.1256" x2="1177.2947" y2="53.159" gradientTransform="matrix(-0.9917 0.129 0.129 0.9917 1834.2668 -99.4529)">
			<stop  offset="0" style="stop-color:#8DC642"/>
			<stop  offset="1" style="stop-color:#1D2F1B"/>
		</linearGradient>
		<path class="st20" d="M634.8,115.7c0,0,47.4-9,75.5-33.1c0,0-38.5,13.7-76.2,30.7L634.8,115.7z"/>
		
			<linearGradient id="SVGID_20_" gradientUnits="userSpaceOnUse" x1="1179.358" y1="31.3457" x2="1177.6176" y2="44.9272" gradientTransform="matrix(-0.9917 0.129 0.129 0.9917 1834.2668 -99.4529)">
			<stop  offset="0" style="stop-color:#8DC642"/>
			<stop  offset="1" style="stop-color:#1D2F1B"/>
		</linearGradient>
		<path class="st21" d="M633.7,109.2c0,0,46.8-13,73.3-39.5c0,0-37.6,16.9-74.2,37.1L633.7,109.2z"/>
		
			<linearGradient id="SVGID_21_" gradientUnits="userSpaceOnUse" x1="1182.2561" y1="28.0702" x2="1180.3732" y2="44.7024" gradientTransform="matrix(-0.9957 9.227286e-002 9.227286e-002 0.9957 1841.153 -66.2966)">
			<stop  offset="0" style="stop-color:#8DC642"/>
			<stop  offset="1" style="stop-color:#1D2F1B"/>
		</linearGradient>
		<path class="st22" d="M632.9,101.7c0,0,46.1-16.7,71.2-45.1c0,0-36.7,19.8-72.2,42.8L632.9,101.7z"/>
		
			<linearGradient id="SVGID_22_" gradientUnits="userSpaceOnUse" x1="603.2741" y1="98.7774" x2="601.394" y2="115.3844" gradientTransform="matrix(0.9845 0.1755 -0.1755 0.9845 27.0821 -142.8653)">
			<stop  offset="0" style="stop-color:#8DC642"/>
			<stop  offset="1" style="stop-color:#1D2F1B"/>
		</linearGradient>
		<path class="st23" d="M634.6,93.9c0,0-44.5-20.4-67.2-50.8c0,0,34.9,22.8,68.3,48.6L634.6,93.9z"/>
		
			<linearGradient id="SVGID_23_" gradientUnits="userSpaceOnUse" x1="1176.6594" y1="-0.2534" x2="1174.738" y2="16.7185" gradientTransform="matrix(-0.9878 0.1555 0.1555 0.9878 1829.3123 -123.3202)">
			<stop  offset="0" style="stop-color:#8DC642"/>
			<stop  offset="1" style="stop-color:#1D2F1B"/>
		</linearGradient>
		<path class="st24" d="M635.2,93c0,0,45.1-20.1,68.7-50.3c0,0-35.6,22.5-69.8,48.1L635.2,93z"/>
		
			<linearGradient id="SVGID_24_" gradientUnits="userSpaceOnUse" x1="1180.7039" y1="-3.4041" x2="1175.1724" y2="19.4592" gradientTransform="matrix(-0.9917 0.129 0.129 0.9917 1834.2668 -99.4529)">
			<stop  offset="0" style="stop-color:#8DC642"/>
			<stop  offset="1" style="stop-color:#1D2F1B"/>
		</linearGradient>
		<path class="st25" d="M633.4,84.4c0,0,44.5-17.9,68-47c0,0-35.2,20.8-69.1,44.7L633.4,84.4z"/>
		
			<linearGradient id="SVGID_25_" gradientUnits="userSpaceOnUse" x1="1180.3425" y1="-12.5476" x2="1175.6204" y2="6.3394" gradientTransform="matrix(-0.9917 0.129 0.129 0.9917 1834.2668 -99.4529)">
			<stop  offset="0" style="stop-color:#8DC642"/>
			<stop  offset="1" style="stop-color:#1D2F1B"/>
		</linearGradient>
		<path class="st26" d="M634.1,77.1c0,0,42.9-22.8,64-54.3c0,0-33.4,24.6-65.3,52.1L634.1,77.1z"/>
		
			<linearGradient id="SVGID_26_" gradientUnits="userSpaceOnUse" x1="1180.9663" y1="-18.6581" x2="1176.3251" y2="1.2317" gradientTransform="matrix(-0.9917 0.129 0.129 0.9917 1834.2668 -99.4529)">
			<stop  offset="0" style="stop-color:#8DC642"/>
			<stop  offset="1" style="stop-color:#1D2F1B"/>
		</linearGradient>
		<path class="st27" d="M634.6,66.6c0,0,39.5-20.1,58.2-49.6c0,0-30.5,22.3-59.4,47.5L634.6,66.6z"/>
		
			<linearGradient id="SVGID_27_" gradientUnits="userSpaceOnUse" x1="1182.8451" y1="-42.7553" x2="1174.9941" y2="-23.5214" gradientTransform="matrix(-0.9831 0.1826 0.1826 0.9831 1825.1105 -149.274)">
			<stop  offset="0" style="stop-color:#8DC642"/>
			<stop  offset="1" style="stop-color:#1D2F1B"/>
		</linearGradient>
		<path class="st28" d="M635.3,57.7c0,0,35-19.4,49.9-47.9c0,0-26.5,21.5-51.2,45.8L635.3,57.7z"/>
		
			<linearGradient id="SVGID_28_" gradientUnits="userSpaceOnUse" x1="1184.2482" y1="-36.6955" x2="1179.358" y2="-22.0248" gradientTransform="matrix(-0.9917 0.129 0.129 0.9917 1834.2668 -99.4529)">
			<stop  offset="0" style="stop-color:#8DC642"/>
			<stop  offset="1" style="stop-color:#1D2F1B"/>
		</linearGradient>
		<path class="st29" d="M634.9,48.7c0,0,33.5-22.9,46.3-52.8c0,0-24.8,24.1-47.7,50.9L634.9,48.7z"/>
		
			<linearGradient id="SVGID_29_" gradientUnits="userSpaceOnUse" x1="1192.5332" y1="-51.0482" x2="1180.6201" y2="-30.284" gradientTransform="matrix(-0.9917 0.129 0.129 0.9917 1834.2668 -99.4529)">
			<stop  offset="0" style="stop-color:#8DC642"/>
			<stop  offset="1" style="stop-color:#1D2F1B"/>
		</linearGradient>
		<path class="st30" d="M636.7,38.5c0,0,25-23.5,32.3-49.6c0,0-17.8,23.2-33.7,48.3L636.7,38.5z"/>
		
			<linearGradient id="SVGID_30_" gradientUnits="userSpaceOnUse" x1="1192.8536" y1="-51.4143" x2="1186.1373" y2="-43.0191" gradientTransform="matrix(-0.9917 0.129 0.129 0.9917 1834.2668 -99.4529)">
			<stop  offset="0" style="stop-color:#8DC642"/>
			<stop  offset="1" style="stop-color:#1D2F1B"/>
		</linearGradient>
		<path class="st31" d="M637.4,24.5c0,0,15.5-19.6,18.3-38.9c0,0-10.5,18.5-19.4,38.1L637.4,24.5z"/>
		
			<linearGradient id="SVGID_31_" gradientUnits="userSpaceOnUse" x1="1195.6461" y1="-63.4454" x2="1188.4958" y2="-54.2522" gradientTransform="matrix(-0.9917 0.129 0.129 0.9917 1834.2668 -99.4529)">
			<stop  offset="0" style="stop-color:#8DC642"/>
			<stop  offset="1" style="stop-color:#1D2F1B"/>
		</linearGradient>
		<path class="st32" d="M637.2,10.8c0,0,12.5-15.8,14.5-29.9c0,0-7.6,13.5-14.2,27.8L637.2,10.8z"/>
		<g>
			
				<linearGradient id="SVGID_32_" gradientUnits="userSpaceOnUse" x1="646.3638" y1="90.6244" x2="621.9847" y2="96.3983" gradientTransform="matrix(0.9845 0.1755 -0.1755 0.9845 27.0821 -142.8653)">
				<stop  offset="0" style="stop-color:#8DC642"/>
				<stop  offset="1" style="stop-color:#1D2F1B"/>
			</linearGradient>
			<path class="st33" d="M638.2,133.4L638-12.8c-0.4,1.4-8.9,146.7-8.9,146.7"/>
			<g>
				<image style="overflow:visible;" width="80" height="196" xlink:href="412DB47A.png"  transform="matrix(1 0 0 1 594 -25.39)">
				</image>
			</g>
			<g>
				<image style="overflow:visible;" width="75" height="184" xlink:href="412DB47D.png"  transform="matrix(1 0 0 1 599 -13.39)">
				</image>
			</g>
		</g>
	</g>
</g>
<g id="Layer_2" class="st34">
	<g class="st35">
		<path class="st36" d="M673.1,15.5c3.2-3.4,7.6-5.3,11.5-8c2.3-1.6,4.5-3.5,6.6-5.4c3-2.7,6.1-5.4,8-8.9c1.3-2.3,2.7-5.5,3.1-8.1
			c0.5-3.4-0.4-7.6-0.5-11c0-1.7-0.1-3.3-0.1-5c-0.1-2.9-0.5-5.8-0.8-8.7c-0.1-0.5-0.1-1.1-0.4-1.5c-0.3-0.4-0.9-0.8-1.4-0.6l0.7,0
			c-6-0.5-12.1-0.2-18,0.9c-2.3,0.4-4.6,1-6.8,1.9c-2,0.9-3.9,2.1-5.9,2.9c-2.5,1-5.4,1.5-7.6,3.1c-2.5,1.8-3.9,4.6-5,7.5
			C653.2-17.1,652-7.9,653,1l0-0.5c0,2.7,0.1,5.3,0.1,8c0,2.6,0,5.4-1.7,7.3c-3.1-1.4-5.2-4.5-6.3-7.7s-1.2-6.7-1.3-10.1
			c-0.1-4-0.3-8.1-0.4-12.1c-0.1-2.4-0.2-4.9,0.2-7.3c1-5.6,4.8-10.7,9.9-13.1c0.1-1-1.4-1.1-2.3-0.8c-4.5,1.3-8.9,2.6-13.4,4.1
			c-3.1,1-6.3,2.2-8.3,4.7c-1.2,1.5-1.8,3.4-2.3,5.3c-3.7,13.6-2,28.6,4.6,41.1c1.5,2.8,3.3,6,2.2,9c-0.1,0.3-0.3,0.7-0.6,0.9
			c-0.5,0.3-1.2,0.1-1.7-0.2c-4.9-2.5-6.7-8.4-7.9-13.8c-0.9-4.2-1.8-8.4-2.4-12.7l0.2,1c-1.2-6.8-1.1-13.8-1-20.7
			c0-2.7,0.1-5.4,0.8-7.9c0.4-1.5,1-3.1,2.2-4.2c0.8-0.7,2.7-0.9,2.6-2.2c-0.3-2.2-2.5-0.5-3.4-0.1c-0.3,0.1-0.7,0.2-1,0.3
			c-0.4,0.1-0.9,0.4-1.3,0.6c-0.8,0.4-1.5,0.9-2.3,1.3c-1.5,0.9-2.9,1.9-4.5,2.5c-1.7,0.6-3.5,1.3-5.2,2c-3.4,1.5-7.4,3.2-9.4,6.5
			c-1.5,2.5-1.6,5.5-1.5,8.4c0.2,6.1,0.7,12.2,2.4,18.1c1.3,4.4,3.2,8.6,5.2,12.8c1,2.1,2,4.2,3,6.3c0.9,1.8,1.8,3.5,2.5,5.3
			c0.5,1.1,0.7,2.2,1.2,3.3c0.5,1.1,0.8,2.2,0.4,3.3c-2.7-0.4-4.4-2.9-5.8-5.2c-5.2-8.8-9.4-18.1-12.7-27.7
			c-2-6.1-3.6-13.1-0.6-18.8c0.8-1.5,1.9-3.1,1.4-4.8c-1.6,1.6-3.3,3.2-5.3,4.4c-1.2,0.7-2.5,1.2-3.6,1.9c-2.6,1.6-4.5,4.2-6.7,6.5
			c-1.9,2-4.1,3.7-5.9,5.8c-1.8,2.1-3.3,4.7-3.4,7.4c-0.1,2.1,0.7,4.2,1.4,6.2c1,2.7,2.1,5.4,3.5,8c4.9,8.9,13.9,14.7,20.5,22.4
			c0.6,0.7,1.1,1.7,0.6,2.4c-0.7,0.9-2.1,0.1-2.9-0.6c-1.8-1.7-3.5-3.5-5.1-5.4l1.4,1.7c-4.8-5.8-9.7-11.5-16.1-15.5
			c-1.5-0.9-3.1-1.8-4.4-3c-2.4-2.1-3.5-5.2-3.6-8.4c0-0.8,0.8-2.7,0.6-3.3c-0.5-1.3-1.9,0.1-2.4,0.7c-4.2,5.4-8.6,11.5-8.1,18.3
			c0.1,1.8,0.6,3.5,1.1,5.3c0.2,0.9,0.5,1.8,1,2.6c0.6,0.9,1.5,1.5,2.4,2.1c8.7,5.9,17.5,11.7,26.2,17.6c2,1.3,3.9,2.6,5.5,4.3
			c0.3,0.3,0.5,0.6,0.4,1c-0.1,0.3-0.4,0.4-0.6,0.6c-3.3,1.7-4.6,1.8-7.4-0.3c-6.6-4.7-10.6-10.9-18.1-14.5
			c-1.9-0.9-3.9-1.8-5.8-2.7c-0.5-0.2-1-0.5-1.5-0.7c-0.3-0.1-0.6-0.2-0.9-0.3c-0.9-0.5-1.7-1.2-2.6-1.7c-0.5-0.3-1-0.7-1.4-1.2
			c-0.3-0.4-0.5-0.8-0.8-1.2c-0.1-0.1-0.1-0.1-0.2-0.1c-0.2,0-0.3,0.1-0.4,0.2c-0.3,0.7,0,1.5,0.1,2.2c0.4,1.7,0.4,3.5,0.4,5.3
			c0,2.1,0.1,4.1,0.4,6.2c0.6,4.3,2.3,8.6,5.3,11.7c2.1,2.1,4.9,3.7,6.5,6.2c1.6,2.5,1.9,5.5,2.7,8.4c1.4,5,4.6,9.5,8.9,12.4
			c5.7,4,12.7,5.1,19.6,6.2c0.8,0.1,1.6,0.3,2.4,0.1c1.7-0.2,3.1-1.6,4-3c0.9-1.5,1.5-3.1,2.4-4.6c1.4-2.3,3.5-4.2,6-5.3l0.2,0
			c0.1-0.4,0.5,0.3,0.3,0.7c-3.1,5.7-6.2,11.3-9.3,17c-1.9,3.5-3.8,6.9-6,10.2c-0.9,1.3-1.9,2.9-1.2,4.3c0.6,1.4,2.4,1.6,3.9,1.7
			c-0.1-0.1,5-9.5,5.4-10.3c1.8-3.5,3.6-7,5.5-10.5c0.8-1.5,1.6-3,2.3-4.5c0.4-0.8,0.8-1.5,1.2-2.3c0.1-0.3,0.8-1.5,1-0.5
			c0.1,0.6-0.4,1.2-0.7,1.8c-0.3,0.7-0.5,1.5-0.7,2.2c-0.4,1.5-0.7,3.1-0.8,4.6c-0.3,3.1,0,6.3,0.8,9.3c0.1,0.4,0.2,0.8,0.4,1.3
			c2.1,6.1,6.6,11.4,12.3,14.5c0.8,0.4,1.7,0.8,2.6,1.1c1.4,0.3,2.9,0.2,4.3-0.1c3.7-0.7,7.3-2.1,10.4-4.2c2.8-1.8,5.3-3,8.6-3.8
			c4.3-1.1,8.7-1.6,12.9-2.9c4.2-1.3,8.4-3.6,10.7-7.3c-3.5-1.5-6.9-3.1-10.2-5c-1.6-1-3.1-2-4.8-2.8c-1.8-0.8-3.8-1.3-5.7-1.9
			c-4.3-1.4-8.2-3.6-11.7-6.5c-1-0.8-1.9-2.3-1-3.2c4.8,0.9,8.2,4.3,12.6,5.7c4.6,1.4,8.6,3.2,13,5.5c3.2,1.7,6.4,3.6,9.9,4.9
			c1.8,0.6,3.8,1.3,5.7,1.2c2.1,0,2.8-1,4.4-2.4c2.1-1.7,4.6-2.9,6.6-4.7c2-1.7,3.3-4,4.5-6.4c0.6-1.2,1.2-2.6,0.6-3.8l0-0.2
			c-5.6,0.9-11.3,0.8-16.8-0.4c-1.2-0.3-2.5-0.6-3.7-0.9c-6.8-1.8-13.6-3.6-20.4-5.3c-2.3-0.6-4.8-1.4-5.8-3.5
			c0.2-1,1.6-1.1,2.7-0.8c5.5,1.3,10.9,2.8,16.4,4.4l-1-0.2c3.7,0,7.3,1.4,11,1.8c3.5,0.3,7-0.2,10.5-0.8c3-0.5,6.2-1,8.7-2.8
			c1.8-1.3,3.1-3.1,4.2-5c2.5-4.7,3.5-10.2,3.8-15.5c0.1-1.8-0.2-3.6,0.2-5.4c0.4-2.1,0.1-4.1-2.2-2c-3.4,3.2-7.7,5.4-11.9,7.5
			c-1.6,0.8-3.2,1.6-4.9,2.1c-2.6,0.8-5.4,0.8-8.2,0.8c-5.7,0-11.5,0.1-17.2,0.1c-3.4,0-7.1,0-9.8-2.1c-0.7-0.5-1.2-1.5-0.7-2.1
			c0.9-0.9,3.5-0.3,4.5-0.1c4.1,0.8,8,0.6,12.1,1c4.9,0.4,9.8-0.1,14.5-1.5c2-0.6,3.9-1.3,5.8-2c3.2-1.2,6.5-2.5,9.7-3.8
			c3.8-1.5,8.7-4.1,9.5-8.6c0.6-3.6-0.5-7.3-1.1-10.9c-0.4-2.4-0.8-4.8-1.1-7.2c-0.1-1.1-0.3-2.1-0.5-3.2c-0.1-0.5,0-0.9-0.3-1.3
			c-0.1-0.1-0.8-0.8-0.9-0.6c-0.7,1.7-1.3,3.4-2.4,4.9c-1.3,1.8-3,3.1-4.8,4.3c-10.3,7.1-22.4,11.5-34.9,12.9
			c-2.9,0.3-6.6,0.1-7.9-2.6c-0.8-1.6,0-2.9,0.9-4.2c1.1-1.7,3.7-2.5,5.6-2.8c2.5-0.4,5.1-0.1,7.7-0.2c5.1-0.2,9.9-1.9,14.7-3.6
			c2.5-0.9,4.9-1.7,7.4-2.6c1.6-0.6,3.2-1.1,4.5-2.1c1.2-0.9,2.2-2.1,3.2-3.3c1.3-1.7,2.7-3.3,4-5c1.1-1.4,2-2.9,1.7-4.7
			c-0.2-1.6-1.2-2.9-1.8-4.3c-0.8-2.1-1.3-4.2-1.6-6.4c-0.2-1.9-0.3-3.9-1.4-5.4l-0.2,0c-1.7,1.7-2,4.2-3,6.3
			c-1.8,3.9-5.9,6.1-9.7,8c-4.1,2.1-8.2,4.2-12.3,6.4c-0.7,0.4-1.4,0.7-2.2,0.5c-1.1-0.3-1.6-1.7-1.3-2.8c0.3-1.1,1.3-1.9,2.1-2.7
			L673.1,15.5z"/>
		<g class="st37">
			<path class="st38" d="M615.7,87.1c-1.6-1.4,1.9-5.5,2.7-6.5c3.2-3.8,6.4-7.7,8.8-12c5-8.9,9.9-18.1,15.8-26.5l-0.4,0.9
				c6.7-11.1,13.8-21.9,21.5-32.4l-0.5,0.7c8.9-11.9,16.8-24.6,23.6-37.8c1.5-2.9,3-5.9,5.2-8.4l0.2-0.2c0.2,0.9-0.2,1.8-0.7,2.7
				c-3.9,7.2-7.9,14.3-11.8,21.5c-0.9,1.6-1.8,3.3-2.7,4.8c-1.9,3.1-4,6.1-6.1,9.1c-11.5,16.4-23,32.6-32.9,50.1
				c-3.6,6.3-6.9,12.6-10.7,18.7c-2.3,3.8-4.8,7.6-7.4,11.3c-0.8,1.1-2.4,5.1-4.4,4.1C615.9,87.2,615.8,87.2,615.7,87.1z"/>
			<path class="st38" d="M617.2,84.2c-3.4-1.8-7.6-1-11.4-0.1c-3.3,0.8-6.6,1.8-9.9,2.8c-1.8,0.6-3.6,1.2-5.5,1.6
				c-5.7,1.4-11.9,1.3-17-1.4c-1-0.5-1.9-1.1-2.6-1.9l-0.3,0c0.4,0.7,0.9,1.3,1.4,1.8c0.9,0.8,2.1,1.4,3.3,1.8
				c3.2,1.2,6.7,1.2,10.1,1.3c1.2,0,2.4,0,3.6-0.1c1.1-0.1,2.2-0.4,3.2-0.7c2.2-0.6,4.5-1.2,6.7-1.8c3.3-0.9,6.5-1.8,9.9-2.3
				c1.5-0.2,3.1-0.4,4.6-0.4c1,0,2,0,3,0.2"/>
			<path class="st38" d="M617.2,83.3c-6.4-4.8-14.8-5.6-22.6-7.5c-4.9-1.2-9.6-2.9-14.2-4.8c-4.5-1.9-9.2-3.9-13.4-6.4
				c-3-1.8-5.7-4.3-8-7c-0.1,0-0.2,0.2-0.1,0.3l-0.1-0.3c1.1,2.6,3.3,4.4,5.6,6c6.8,4.8,14.7,8.1,22.6,10.7c8,2.6,16.1,4.6,24.1,7.2
				c1.9,0.6,3.8,1.3,5.2,2.7"/>
			<path class="st38" d="M618.6,81c-2.7-3.8-5.5-7.7-9-10.8c-1.9-1.7-4.1-3.1-6.3-4.5c-2-1.2-4.3-2.1-6-3.6
				c-1.9-1.6-4.2-2.9-6.2-4.4c-2.1-1.5-4.2-3-6.3-4.6c-3.2-2.4-6.4-5-9.5-7.5c-2.7-2.2-5.3-4.5-7.6-7.1c-2.3-2.7-3.8-5.7-5.4-8.8
				c-0.3-0.5-0.5-1.1-0.4-1.6l0.3,0.4c5.2,9.7,13.8,17.2,22.7,23.6s18.6,11.9,27.2,18.8c3.2,2.6,6.4,5.6,7.7,9.6"/>
			<path class="st38" d="M580.7,1.7c-0.5,1.5-0.3,3.1,0,4.6c1.2,6.2,3.9,12.1,7.1,17.5c3.3,5.4,7.2,10.4,11.3,15.2l0.7,0.8
				c5.7,6.8,11.4,13.5,17.1,20.3c3,3.6,6,7.2,8.2,11.3l1.1,1.3c0,0-1.5,2.7-1.2,0.5s-28.3-35.4-28.3-35.4c-2.5-3.1-4.6-6.4-6.9-9.7
				c-1.2-1.7-2.4-3.4-3.5-5.3c-1.4-2.4-2.4-5-3.5-7.5c-0.9-2.2-1.8-4.5-2.3-6.8c-0.5-2.3-0.7-4.8,0-7.1L580.7,1.7z"/>
			<path class="st38" d="M612,14.2c0.7,4.9,2,9.8,4.1,14.3c0.7,1.6,1.6,3.2,2.4,4.8c4.6,8.8,9.4,17.4,14.4,26l1.1-1.4
				c-3.2-5.4-6.4-10.8-9.6-16.2c-1.6-2.7-3.1-5.3-4.5-8.1c-5.6-11.4-7.8-24.1-9.8-36.6c-0.7-4.4-1.4-9,0-13.2c0,0,1.3,0.1-0.1-0.2
				c-1.4-0.4-1.2,10-0.9,15c0.1,2.5,0.3,5.1,0.8,7.5c0.7,3.1,2,6.1,2.2,9.3"/>
			<path class="st38" d="M648.2,36c-2.5-5.2-5-10.5-7.4-15.7c-0.9-2-1.9-3.9-2.5-6c-0.4-1.3-0.7-2.5-0.9-3.8
				c-1.2-5.5-2.4-11-2.1-16.6c0.1-2.9,0.6-5.9,1.2-8.7c0.3-1.6,0.7-3.2,1.1-4.8l-0.1-0.6c-3.7,9.4-4.3,20-1.8,29.8
				c0.6,2.3,1.3,4.5,2.1,6.7c2.5,7.2,5.4,14.3,9,21"/>
			<path class="st38" d="M660.9,15.8c-1-5.3-2.1-10.6-2.7-16c-0.5-4.1-0.7-8.3,0.2-12.3c0.5-2.3,1.4-4.6,1.4-7l-0.1,0.5
				c-0.9,2.8-1.8,5.7-2.5,8.6c-0.3,1.1-0.6,2.3-0.7,3.4c-0.1,1.1,0,2.2,0.1,3.2c0.5,7,1.6,14,3.2,20.9"/>
			<path class="st38" d="M652.9,29c1.5,0,3.5,0.4,5,0.4c2,0,4,0,5.9-0.2c2.2-0.2,4.3-0.7,6.5-1.3c7.6-2.1,14.9-5.5,21.3-10.2
				l0.4-0.2c-2.1,1.7-4.4,3.3-6.8,4.7c-1.2,0.7-2.4,1.4-3.6,2c-1.1,0.5-2.1,0.9-3.1,1.6c-1.3,0.9-2.8,1.4-4.3,1.9
				c-2,0.7-3.9,1.5-6,1.8c-5,0.7-11.2,1-16.2,1.1"/>
			<path class="st38" d="M619.9,82.8c1.5,0,2.7,1.1,3.7,2.1c1.9,2.1,3.3,4.7,5,7c1.3,1.8,2.9,3.4,4.4,5.1c3.7,4,7.6,7.9,12.1,10.9
				c2.7,1.8,5.6,3.3,8.7,4.2c1.6,0.5,3.2,0.8,4.8,0.9c1.5,0.1,2.6-0.2,4.1-0.4c0.5-0.1,1-0.1,1.5-0.2c0.9-0.1,1.5,0.5,0.3,0.7
				c-1.1,0.2-2.3,0.3-3.4,0.5c-1.5,0.2-3,0.3-4.5,0.1c-1.3-0.2-2.7-0.5-4-0.9c-2.3-0.7-4.6-1.4-6.8-2.5c-5.6-2.7-9.9-7.4-13.9-12.1
				s-7.7-9.8-12.5-13.8"/>
			<path class="st38" d="M617.4,86.7c1.3,2.4,1.7,5.2,2,7.8c0.8,5.2,1.7,10.4,2.7,15.6c0.2,1,0.4,2,0.7,3c1.1,4.2,2.9,8.3,5.4,11.9
				l0-0.4c-1.3-2.8-2.3-5.8-3.2-8.8c-0.5-1.7-1.1-3.4-1.5-5.1c-1.1-5.1-0.9-10.4-2.2-15.5c-0.3-1.1-0.6-2.2-0.9-3.3
				c-0.3-1.6-0.4-3.3-1.1-4.8c-0.4-0.9-1-1.7-1.6-2.5"/>
			<path class="st38" d="M623.7,77.5c3.7,0.8,7.1,2.4,10.5,4.1c2,0.9,3.9,1.9,5.9,2.8c3.3,1.6,6.6,3.1,9.8,5l-0.2-0.1
				c1.2,0.6,2.4,1.1,3.5,1.7c2.1,1,4.2,2,6.3,3c4.1,1.9,8.1,3.9,12.4,5.2c1.1,0.3,2.2,0.6,3.2,0.9c1,0.3,2.1,0.3,3,0.7
				c0.7,0.2,1.3,0.6,2.1,0.7c2.1,0.3,4.7,1,6.9,0.7l-0.8,0.2c-2,0.6-4.1,0.2-6-0.3c-2-0.5-3.9-1.3-5.9-1.5c-0.6-0.1-1.2-0.1-1.9-0.2
				c-0.9-0.2-1.8-0.5-2.6-0.9c-3.7-1.6-7.3-3.2-11-4.8c-1.1-0.5-2.1-0.9-3.2-1.4c-2.4-1-4.6-2.2-7-3.1c-1-0.4-2-1-3-1.4
				c-0.5-0.2-1.1-0.3-1.6-0.6c-0.6-0.2-1.2-0.6-1.7-0.9c-6.2-3.5-12.8-6.4-19.6-8.5"/>
			<path class="st38" d="M677.5,78.9c5.9,0,11.8-1,17.4-2.9"/>
			<path class="st38" d="M695.6,76c0.1-0.2-0.2-0.3-0.4-0.2c-6.6,1-13.4,3.1-20,1.7c-2.5-0.5-5-1.5-7.5-1.2l0.4,0
				c-10.4-1.1-20.2-5-30-8.6c-2.7-1-5.6-1.9-8.3-1l-0.2,1.1c6.3-0.2,12.2,2.8,18.2,4.9c9.6,3.5,19.8,4.9,29.9,6.2"/>
			<path class="st38" d="M639.3,51.2c6.4,2,13,3.2,19.7,3.4c1.3,0,2.7,0.1,4,0c3.8-0.1,7.6-0.5,11.3-1.3c1.8-0.4,3.6-0.9,5.5-1.3
				c2-0.5,4-1,6-1.5c3.1-0.8,6.2-1.6,9-3.2c0.9-0.5,1.7-1.1,2.5-1.6c0.4-0.3,0.8-0.6,1.2-0.9c0.3-0.2,0.7-0.6,1.1-0.7
				c0,0,0.1,0,0.1,0c0.1,0,0.1,0.1,0.1,0.1c0,0.1,0,0.1-0.1,0.1c-1.8,2.3-4.5,3.9-7.2,4.8c-4.8,1.7-9.6,3.3-14.5,5
				c-2,0.7-9.5,1.4-11.2,1.5c-1,0.1-1.9,0.3-2.9,0.4c-1.1,0.1-2.2,0.1-3.4,0.1c-7.1-0.2-15.5-1.4-22.3-3.4"/>
			<path class="st38" d="M665.3,10.8c7.8-2.2,14.2-7.6,19.6-13.6c4.4-5,8.4-10.7,9.6-17.2l-0.4,0.3c-4.9,12.5-14.7,23-26.8,28.8"/>
		</g>
		<g class="st39">
			<path class="st40" d="M620,80.3c0,0,0-0.1-0.1-0.2c0-0.2-0.1-0.4-0.2-0.7c-0.2-0.6-0.5-1.4-0.9-2.3c-0.5-1-1.1-2.1-2-3.4
				c-0.9-1.2-1.9-2.6-3.2-3.9c-0.3-0.3-0.7-0.7-1-1c-0.2-0.2-0.3-0.3-0.5-0.5c-0.2-0.2-0.4-0.3-0.6-0.5c-0.4-0.3-0.8-0.7-1.2-1
				c-0.4-0.3-0.8-0.6-1.2-1c-0.2-0.2-0.4-0.3-0.6-0.5c-0.2-0.2-0.4-0.3-0.7-0.5c-0.4-0.3-0.9-0.6-1.4-0.9c-0.9-0.6-1.9-1.2-2.8-1.8
				c-1.9-1.2-3.9-2.5-5.9-3.8c-2-1.3-4-2.6-6-4c-4-2.7-8-5.5-11.6-8.2c-1.8-1.4-3.6-2.7-5.2-4c-1.6-1.3-3.1-2.6-4.4-3.8
				c-1.3-1.2-2.5-2.4-3.5-3.5c-0.5-0.5-0.9-1.1-1.4-1.5c-0.4-0.5-0.8-0.9-1.1-1.4c-0.3-0.4-0.6-0.8-0.8-1.2
				c-0.2-0.3-0.4-0.6-0.5-0.9c-0.3-0.5-0.4-0.8-0.4-0.8l-0.6,0.3c0,0,0.1,0.3,0.4,0.8c0.1,0.3,0.3,0.6,0.5,1
				c0.2,0.4,0.4,0.8,0.7,1.3c0.3,0.5,0.6,0.9,1,1.5c0.4,0.5,0.8,1.1,1.3,1.7c1,1.2,2.1,2.4,3.4,3.7c1.3,1.3,2.8,2.6,4.4,4
				c1.6,1.4,3.3,2.8,5.1,4.2c3.6,2.8,7.6,5.6,11.6,8.4c2,1.4,4.1,2.7,6.1,4c2,1.3,4,2.5,6,3.7c1,0.6,1.9,1.2,2.9,1.8
				c0.5,0.3,0.9,0.6,1.3,0.9c0.2,0.1,0.4,0.3,0.7,0.4c0.2,0.2,0.4,0.3,0.6,0.5c0.4,0.3,0.8,0.6,1.2,0.9c0.4,0.3,0.8,0.6,1.1,0.9
				c0.2,0.2,0.4,0.3,0.6,0.5c0.2,0.2,0.3,0.3,0.5,0.5c0.3,0.3,0.7,0.6,1,0.9c1.3,1.3,2.4,2.5,3.3,3.6c0.9,1.2,1.6,2.2,2.1,3.1
				c0.5,0.9,0.8,1.7,1,2.2c0.1,0.3,0.2,0.5,0.2,0.6c0,0.1,0.1,0.2,0.1,0.2L620,80.3z"/>
			<path class="st40" d="M625.8,70.2c0,0-0.7-1.1-2-3c-1.3-1.9-3.1-4.5-5.4-7.7c-1.1-1.6-2.4-3.3-3.7-5c-1.3-1.8-2.8-3.7-4.3-5.5
				c-0.8-0.9-1.6-1.9-2.4-2.9c-0.8-0.9-1.7-1.9-2.5-2.8c-1.7-1.9-3.3-3.9-4.9-5.9c-3.2-4-6.3-8.1-9-12.1c-1.3-2-2.6-3.9-3.8-5.8
				c-1.1-1.9-2.2-3.7-3-5.4c-0.8-1.7-1.5-3.3-2.1-4.8c-0.5-1.5-0.9-2.8-1.1-3.8c-0.2-1.1-0.3-1.9-0.3-2.5c0-0.6,0-0.9,0-0.9L580.8,2
				c0,0,0,0.3-0.1,1c0,0.6,0,1.5,0.1,2.7c0.2,1.1,0.4,2.5,0.9,4c0.5,1.5,1.1,3.2,1.9,5c0.8,1.8,1.8,3.7,2.9,5.6c1.1,1.9,2.3,4,3.7,6
				c2.7,4.1,5.8,8.3,9,12.3c1.6,2,3.3,4,5,5.9c0.8,0.9,1.7,1.9,2.5,2.8c0.8,0.9,1.6,1.8,2.4,2.8c1.5,1.8,3,3.7,4.4,5.4
				c1.4,1.7,2.7,3.4,3.9,4.9c2.4,3.1,4.3,5.6,5.7,7.4c1.4,1.8,2.2,2.8,2.2,2.8L625.8,70.2z"/>
			<path class="st40" d="M634.3,55.6c0,0-2.2-4.2-5.5-10.5c-0.8-1.6-1.7-3.3-2.7-5.1c-0.9-1.8-1.9-3.7-2.9-5.7c-1-2-2-4-3-6.1
				c-0.5-1-1-2.1-1.4-3.2l-0.3-0.8l-0.2-0.4l-0.1-0.2l0,0l0,0c0,0,0,0,0,0l0-0.1c-0.2-0.6-0.3-1.1-0.5-1.7l-0.4-1.7
				c-0.1-0.6-0.3-1.1-0.4-1.7c-0.3-1.1-0.5-2.3-0.7-3.4c-0.4-2.3-0.9-4.5-1.3-6.7C614.4,6.2,614,4,613.7,2c-0.3-2-0.7-3.9-1-5.6
				c-0.6-3.5-1.1-6.4-1.5-8.5c-0.4-2-0.6-3.2-0.6-3.2l-0.7,0.1c0,0,0,0.3,0.1,0.8c0.1,0.6,0.1,1.4,0.3,2.4c0.1,1,0.3,2.3,0.4,3.7
				c0.2,1.4,0.4,3.1,0.6,4.8c0.2,1.8,0.5,3.7,0.8,5.7c0.3,2,0.6,4.1,1,6.3c0.4,2.2,0.7,4.5,1.2,6.8c0.2,1.1,0.4,2.3,0.7,3.5
				c0.1,0.6,0.2,1.2,0.4,1.8l0.4,1.8c0.2,0.6,0.3,1.1,0.5,1.7l0,0.1l0,0.1l0,0l0,0.1l0.1,0.2l0.2,0.4l0.3,0.9c0.5,1.1,1,2.2,1.5,3.2
				c1,2.1,2.1,4.2,3.1,6.1c1,2,2.1,3.8,3.1,5.6c1,1.8,2,3.4,2.8,5c0.9,1.5,1.7,2.9,2.5,4.2c0.7,1.2,1.4,2.3,1.9,3.2
				c0.5,0.9,1,1.6,1.3,2.1c0.3,0.5,0.5,0.7,0.5,0.7L634.3,55.6z"/>
			<path class="st40" d="M648.6,33.3c0,0-0.4-0.8-1.1-2.1c-0.7-1.3-1.6-3.3-2.6-5.6c-0.5-1.2-1-2.4-1.6-3.8
				c-0.6-1.4-1.1-2.8-1.6-4.3c-0.5-1.5-1.1-3.1-1.6-4.7c-0.3-0.8-0.5-1.6-0.7-2.4c-0.2-0.8-0.4-1.6-0.7-2.4
				c-0.2-0.8-0.4-1.6-0.6-2.5c-0.2-0.8-0.3-1.6-0.5-2.5c-0.1-0.8-0.3-1.6-0.4-2.4c-0.1-0.8-0.3-1.6-0.3-2.4
				c-0.2-1.6-0.3-3.1-0.4-4.5c-0.1-1.4,0-2.8,0-4.1c0-0.6,0.1-1.2,0.1-1.8c0.1-0.6,0.1-1.1,0.2-1.6c0-0.5,0.1-1,0.2-1.4
				c0.1-0.4,0.1-0.8,0.2-1.2c0.3-1.4,0.5-2.3,0.5-2.3l-0.7-0.2c0,0-0.1,0.2-0.2,0.6c-0.1,0.4-0.3,0.9-0.5,1.7
				c-0.1,0.4-0.2,0.8-0.3,1.2c-0.1,0.4-0.2,0.9-0.3,1.4c-0.1,0.5-0.2,1.1-0.3,1.7c-0.1,0.6-0.1,1.2-0.2,1.9
				c-0.1,1.3-0.2,2.7-0.2,4.2c0,1.5,0.1,3.1,0.2,4.7c0.1,0.8,0.2,1.6,0.3,2.5c0.1,0.8,0.3,1.7,0.4,2.5c0.2,0.8,0.3,1.7,0.5,2.5
				c0.2,0.8,0.4,1.7,0.6,2.5c0.2,0.8,0.4,1.7,0.7,2.5c0.2,0.8,0.5,1.6,0.8,2.5c0.5,1.6,1.1,3.2,1.7,4.7c0.6,1.5,1.2,3,1.8,4.3
				c0.6,1.4,1.2,2.6,1.8,3.8c1.2,2.3,2.2,4.2,3,5.5c0.8,1.3,1.3,2,1.3,2L648.6,33.3z"/>
			<path class="st40" d="M661.4,13.3c0,0,0-0.1-0.1-0.4c-0.1-0.2-0.1-0.6-0.2-1c-0.2-0.8-0.5-2-0.8-3.4c-0.1-0.7-0.3-1.5-0.5-2.3
				c-0.2-0.8-0.3-1.7-0.4-2.6c-0.1-0.9-0.2-1.8-0.3-2.7c-0.1-0.9-0.1-1.9-0.2-2.8c-0.1-1.9,0-3.8,0.1-5.6c0.1-0.9,0.1-1.8,0.2-2.6
				c0.1-0.8,0.2-1.6,0.3-2.3c0.2-1.4,0.4-2.6,0.5-3.5c0.1-0.4,0.1-0.7,0.2-1c0-0.1,0-0.2,0.1-0.2c0,0,0,0,0,0c0,0,0,0,0,0
				c0,0-0.1,0.1-0.1,0.1c0,0-0.1,0-0.2,0c-0.2-0.1-0.2-0.1-0.2-0.1l0.6-0.4c0,0,0-0.1-0.2-0.1c-0.1,0-0.2,0-0.2,0
				c-0.1,0-0.1,0-0.2,0.1c0,0-0.1,0.1-0.1,0.1c0,0,0,0,0,0.1c0,0.1-0.1,0.2-0.1,0.3c-0.1,0.2-0.2,0.5-0.4,1c-0.3,0.8-0.6,2-0.9,3.5
				c-0.2,0.7-0.3,1.5-0.5,2.3c-0.1,0.8-0.3,1.7-0.4,2.6c-0.2,1.8-0.3,3.8-0.3,5.8c0,0.5,0,1,0.1,1.5c0,0.5,0.1,1,0.1,1.5
				c0.1,1,0.3,1.9,0.4,2.8c0.2,0.9,0.4,1.8,0.6,2.6c0.1,0.4,0.2,0.8,0.3,1.2c0.1,0.4,0.2,0.8,0.3,1.1c0.2,0.7,0.5,1.3,0.7,1.9
				c0.2,0.6,0.4,1,0.6,1.4c0.2,0.4,0.3,0.7,0.4,0.9c0.1,0.2,0.1,0.3,0.1,0.3L661.4,13.3z"/>
			<path class="st40" d="M694.2-22.5C694.2-22.5,694.2-22.4,694.2-22.5c-0.1,0.1-0.2,0.3-0.3,0.4c-0.2,0.2-0.4,0.6-0.7,1
				c-0.6,0.9-1.4,2.1-2.4,3.6c-0.5,0.7-1,1.5-1.6,2.4c-0.6,0.8-1.2,1.7-1.8,2.6c-0.6,0.9-1.3,1.8-2,2.8c-0.7,0.9-1.4,1.9-2.1,2.8
				c-0.7,0.9-1.5,1.8-2.2,2.7c-0.7,0.9-1.5,1.7-2.3,2.5c-0.4,0.4-0.8,0.8-1.1,1.2c-0.4,0.4-0.7,0.7-1.1,1.1c-0.4,0.3-0.7,0.7-1.1,1
				c-0.4,0.3-0.7,0.6-1,0.9c-0.7,0.6-1.3,1.1-1.9,1.5c-0.6,0.4-1.1,0.8-1.5,1.1c-0.4,0.3-0.8,0.5-1,0.6c-0.2,0.1-0.4,0.2-0.4,0.2
				l0.3,0.6c0,0,0.1-0.1,0.4-0.2c0.3-0.1,0.6-0.3,1.1-0.5c0.5-0.2,1.1-0.5,1.7-0.9c0.6-0.4,1.3-0.8,2.1-1.4c0.4-0.3,0.7-0.6,1.1-0.8
				c0.4-0.3,0.8-0.6,1.2-1c0.8-0.7,1.6-1.4,2.4-2.2c0.8-0.8,1.6-1.6,2.4-2.5c0.8-0.9,1.6-1.8,2.3-2.7c0.7-0.9,1.5-1.9,2.2-2.9
				c0.7-1,1.3-1.9,2-2.9c0.6-0.9,1.2-1.9,1.7-2.7c0.5-0.9,1-1.7,1.4-2.5c0.9-1.6,1.5-2.9,2-3.8c0.2-0.5,0.4-0.8,0.5-1.1
				c0.1-0.1,0.1-0.2,0.1-0.2c0-0.1,0.1-0.1,0.1-0.1L694.2-22.5z"/>
			<path class="st40" d="M690.8,16.8c0,0-0.5,0.3-1.4,0.7c-0.9,0.5-2.2,1.1-3.7,1.9c-0.8,0.4-1.6,0.8-2.5,1.2
				c-0.9,0.4-1.8,0.9-2.8,1.3c-1,0.4-2,0.9-3.1,1.3c-1,0.4-2.1,0.9-3.2,1.3c-1.1,0.4-2.2,0.8-3.2,1.1c-1.1,0.4-2.1,0.7-3.2,1
				c-0.5,0.1-1,0.3-1.5,0.4c-0.5,0.1-1,0.2-1.5,0.3c-0.5,0.1-0.9,0.2-1.4,0.3c-0.5,0.1-0.9,0.1-1.3,0.2c-0.8,0.1-1.6,0.2-2.3,0.3
				c-0.7,0.1-1.3,0.1-1.8,0.1c-0.5,0-0.9,0-1.2,0c-0.3,0-0.4,0-0.4,0l-0.1,0.7c0,0,0.1,0,0.4,0.1c0.3,0,0.7,0.1,1.2,0.2
				c0.5,0,1.1,0.1,1.9,0.1c0.7,0,1.5,0,2.4-0.1c0.4,0,0.9-0.1,1.4-0.1c0.5-0.1,1-0.1,1.5-0.2c0.5-0.1,1-0.2,1.5-0.3
				c0.5-0.1,1.1-0.2,1.6-0.3c1.1-0.3,2.2-0.5,3.3-0.9c1.1-0.3,2.2-0.7,3.3-1.1c1.1-0.4,2.2-0.9,3.2-1.3c1.1-0.5,2.1-0.9,3.1-1.4
				c1-0.5,1.9-1,2.8-1.5c0.9-0.5,1.7-1,2.5-1.4c1.5-0.9,2.7-1.7,3.6-2.3c0.8-0.6,1.3-0.9,1.3-0.9L690.8,16.8z"/>
			<path class="st40" d="M698.5,43.1c0,0-0.8,0.4-2.3,1c-1.5,0.6-3.6,1.4-6.2,2.4c-1.3,0.5-2.7,0.9-4.2,1.4c-1.5,0.5-3.1,1-4.8,1.4
				c-1.7,0.5-3.4,0.9-5.1,1.3c-0.4,0.1-0.9,0.2-1.3,0.3c-0.4,0.1-0.9,0.2-1.3,0.3c-0.9,0.2-1.8,0.3-2.7,0.5
				c-0.9,0.2-1.8,0.3-2.7,0.4c-0.9,0.1-1.8,0.2-2.7,0.3c-1.8,0.2-3.6,0.3-5.3,0.4c-0.9,0-1.7,0.1-2.5,0.1c-0.8,0-1.6,0-2.4,0
				c-1.6-0.1-3-0.2-4.4-0.3c-0.7-0.1-1.3-0.2-1.9-0.3c-0.6-0.1-1.2-0.2-1.7-0.3c-0.6-0.1-1.1-0.2-1.5-0.3c-0.5-0.1-0.9-0.2-1.3-0.3
				c-1.5-0.5-2.4-0.7-2.4-0.7l-0.3,0.6c0,0,0.2,0.1,0.6,0.3c0.4,0.2,1,0.4,1.8,0.7c0.4,0.1,0.8,0.3,1.3,0.4c0.5,0.2,1,0.3,1.5,0.5
				c0.6,0.1,1.1,0.3,1.8,0.5c0.6,0.1,1.3,0.3,2,0.4c1.4,0.2,2.9,0.5,4.5,0.6c0.8,0.1,1.6,0.1,2.5,0.1c0.8,0.1,1.7,0,2.6,0
				c1.8,0,3.6-0.1,5.4-0.3c0.9-0.1,1.8-0.2,2.8-0.3c0.9-0.1,1.9-0.3,2.8-0.4c0.9-0.2,1.8-0.3,2.8-0.5c0.5-0.1,0.9-0.2,1.4-0.3
				c0.5-0.1,0.9-0.2,1.3-0.3c1.8-0.4,3.5-0.9,5.2-1.4c1.7-0.5,3.3-1.1,4.8-1.6c1.5-0.5,2.9-1.1,4.2-1.6c2.6-1.1,4.7-2.1,6.1-2.8
				c1.5-0.7,2.3-1.2,2.3-1.2L698.5,43.1z"/>
			<path class="st40" d="M694.4,74.2c0,0-0.1,0-0.2,0c-0.1,0-0.3,0-0.5,0.1c-0.4,0.1-1.1,0.1-2,0.2c-0.9,0.1-1.9,0.1-3.1,0.2
				c-1.2,0-2.5,0.1-4,0.1c-1.5,0-3.1,0-4.8,0c-1.7,0-3.5-0.1-5.3-0.2c-0.9-0.1-1.9-0.1-2.8-0.2c-0.9-0.1-1.9-0.2-2.9-0.3
				c-1-0.1-1.9-0.2-2.9-0.3c-1-0.1-1.9-0.3-2.9-0.4c-1-0.1-1.9-0.3-2.9-0.4c-1-0.1-1.9-0.4-2.9-0.5c-1.9-0.4-3.7-0.8-5.5-1.2
				c-0.9-0.2-1.8-0.5-2.6-0.7c-0.9-0.2-1.7-0.5-2.5-0.7c-0.8-0.2-1.6-0.5-2.3-0.7c-0.8-0.2-1.5-0.5-2.2-0.7
				c-1.4-0.5-2.7-0.9-3.8-1.4c-1.1-0.4-2.1-0.8-2.9-1.2c-0.8-0.3-1.4-0.6-1.8-0.8c-0.4-0.2-0.6-0.3-0.6-0.3l-0.3,0.6
				c0,0,0.2,0.1,0.6,0.4c0.4,0.2,1,0.6,1.8,1c0.8,0.4,1.7,0.9,2.8,1.4c1.1,0.5,2.4,1.1,3.7,1.6c1.4,0.6,2.9,1.1,4.5,1.7
				c0.8,0.3,1.6,0.6,2.5,0.8c0.9,0.3,1.7,0.5,2.6,0.8c1.8,0.5,3.7,1,5.6,1.4c1,0.2,1.9,0.4,2.9,0.6c1,0.2,2,0.3,2.9,0.5
				c1,0.1,2,0.3,3,0.4c1,0.1,2,0.2,2.9,0.3c2,0.2,3.9,0.3,5.7,0.4c1.9,0.1,3.7,0.1,5.4,0.1c1.7,0,3.3-0.1,4.8-0.2
				c0.7,0,1.5-0.1,2.1-0.1c0.7-0.1,1.3-0.1,1.9-0.2c0.6-0.1,1.2-0.1,1.7-0.2c0.5-0.1,1-0.1,1.4-0.2c0.9-0.1,1.5-0.3,2-0.4
				c0.2-0.1,0.5-0.1,0.6-0.1c0.1,0,0.2-0.1,0.2-0.1L694.4,74.2z"/>
			<path class="st40" d="M686.1,101.1c0,0-1-0.2-2.7-0.7c-0.9-0.2-1.9-0.5-3.1-0.9c-1.2-0.4-2.5-0.8-4-1.2c-1.5-0.5-3-1-4.7-1.6
				c-0.8-0.3-1.7-0.6-2.5-1c-0.4-0.2-0.9-0.3-1.3-0.5c-0.4-0.2-0.9-0.4-1.3-0.6c-0.9-0.4-1.7-0.8-2.6-1.2c-0.9-0.4-1.8-0.9-2.7-1.3
				c-1.8-0.9-3.7-1.7-5.6-2.6c-3.7-1.7-7.5-3.4-11-4.9c-1.8-0.8-3.5-1.5-5.1-2.2c-1.6-0.7-3.2-1.3-4.6-1.9c-2.8-1.2-5.2-2.1-6.9-2.8
				c-0.8-0.3-1.5-0.6-1.9-0.8c-0.4-0.2-0.7-0.3-0.7-0.3l-0.3,0.6c0,0,0.2,0.1,0.7,0.3c0.4,0.2,1.1,0.5,1.9,0.9
				c1.6,0.8,3.9,1.9,6.7,3.2c1.4,0.7,2.9,1.4,4.5,2.1c1.6,0.7,3.3,1.5,5,2.3c3.5,1.6,7.2,3.3,10.9,5c1.9,0.9,3.7,1.7,5.6,2.5
				c0.9,0.4,1.8,0.8,2.7,1.3c0.9,0.4,1.8,0.8,2.7,1.2c1.8,0.8,3.6,1.4,5.2,2c0.8,0.3,1.7,0.5,2.5,0.8c0.8,0.2,1.6,0.5,2.3,0.7
				c1.5,0.4,2.9,0.8,4.1,1c1.2,0.3,2.3,0.5,3.2,0.7c1.8,0.3,2.8,0.5,2.8,0.5L686.1,101.1z"/>
			<path class="st40" d="M664.1,111.5c0,0-0.1,0-0.1,0c-0.1,0-0.2,0-0.4,0.1c-0.4,0.1-0.9,0.1-1.7,0.1c-0.7,0-1.6,0-2.6-0.1
				c-0.5-0.1-1-0.1-1.6-0.3c-0.3-0.1-0.6-0.1-0.9-0.2c-0.3-0.1-0.6-0.2-0.9-0.2c-0.6-0.1-1.2-0.4-1.8-0.6c-0.6-0.2-1.3-0.5-1.9-0.8
				c-0.3-0.2-0.7-0.3-1-0.5c-0.2-0.1-0.3-0.2-0.5-0.2c-0.2-0.1-0.3-0.2-0.5-0.3c-0.7-0.4-1.3-0.7-2-1.1c-0.3-0.2-0.7-0.4-1-0.6
				l-0.1,0c0,0,0,0,0,0l0,0l-0.1-0.1l-0.2-0.2l-0.5-0.4c-0.3-0.2-0.7-0.5-1-0.7c-0.3-0.2-0.6-0.5-1-0.7c-0.3-0.3-0.6-0.5-1-0.8
				c-0.3-0.3-0.6-0.5-1-0.8c-0.6-0.5-1.3-1.1-1.9-1.6c-1.3-1.1-2.5-2.3-3.7-3.4c-0.6-0.6-1.2-1.2-1.8-1.7c-0.6-0.6-1.2-1.1-1.7-1.7
				c-1.1-1.1-2.2-2.2-3.2-3.3c-1-1-2-2-2.9-3c-0.9-0.9-1.7-1.8-2.4-2.5c-0.7-0.8-1.3-1.4-1.8-2c-1-1.1-1.6-1.7-1.6-1.7l-0.5,0.4
				c0,0,0.5,0.7,1.4,1.9c0.9,1.2,2.3,2.8,3.9,4.8c0.8,1,1.7,2,2.7,3.1c1,1.1,2,2.2,3.1,3.4c1.1,1.2,2.3,2.3,3.5,3.5
				c1.2,1.2,2.5,2.4,3.7,3.5c0.6,0.6,1.3,1.1,2,1.7c0.3,0.3,0.7,0.6,1,0.8c0.3,0.3,0.7,0.5,1,0.8c0.3,0.3,0.7,0.5,1,0.8
				c0.3,0.2,0.7,0.5,1,0.7l0.5,0.3l0.3,0.2l0.1,0.1l0.1,0.1l0.1,0c0.4,0.2,0.7,0.4,1.1,0.6c1.4,0.8,2.9,1.5,4.2,2.1
				c0.7,0.3,1.4,0.5,2.1,0.7c0.7,0.2,1.3,0.4,2,0.5c1.3,0.3,2.5,0.4,3.5,0.5c1.1,0,2,0,2.8-0.1c0.8-0.1,1.4-0.2,1.8-0.3
				c0.2,0,0.4-0.1,0.5-0.1c0.1,0,0.2,0,0.2,0L664.1,111.5z"/>
			<path class="st40" d="M629.3,123.6c0,0-0.2-0.6-0.7-1.6c-0.1-0.2-0.2-0.5-0.3-0.8c-0.1-0.3-0.2-0.6-0.4-1
				c-0.1-0.3-0.3-0.7-0.4-1.1c-0.1-0.4-0.3-0.8-0.4-1.2c-0.3-0.9-0.5-1.8-0.8-2.8c-0.1-0.5-0.2-1-0.3-1.5c-0.1-0.5-0.2-1.1-0.3-1.6
				c-0.1-0.6-0.1-1.1-0.2-1.7c-0.1-0.6-0.1-1.2-0.2-1.7c-0.1-1.2-0.1-2.4-0.2-3.6c-0.1-1.2-0.1-2.5-0.3-3.7
				c-0.1-0.6-0.2-1.2-0.3-1.8c-0.1-0.6-0.3-1.2-0.5-1.8c-0.3-1.1-0.7-2.2-1-3.2c-0.3-1-0.7-2-1-2.8c-1.2-3.5-2.2-5.8-2.2-5.8
				l-0.7,0.2c0,0,0.6,2.4,1.6,5.9c0.5,1.8,1,3.8,1.6,6.1c0.1,0.3,0.1,0.5,0.2,0.8c0.1,0.3,0.1,0.5,0.2,0.8c0.1,0.6,0.2,1.1,0.2,1.7
				c0.1,1.2,0.2,2.4,0.2,3.6c0,1.2,0.1,2.5,0.2,3.7c0.1,0.6,0.1,1.2,0.2,1.8c0.1,0.6,0.2,1.2,0.3,1.8c0.1,0.6,0.2,1.1,0.4,1.7
				c0.2,0.5,0.3,1.1,0.4,1.6c0.3,1,0.7,2,1,2.8c0.2,0.4,0.4,0.8,0.5,1.2c0.2,0.4,0.4,0.7,0.5,1.1c0.2,0.3,0.3,0.7,0.5,1
				c0.2,0.3,0.3,0.5,0.4,0.8c0.5,0.9,0.9,1.5,0.9,1.5L629.3,123.6z"/>
			<path class="st40" d="M616.3,81.4c0,0-0.8-0.4-2.3-1.2c-1.5-0.7-3.6-1.7-6.2-2.8c-1.3-0.5-2.7-1.1-4.2-1.7
				c-1.5-0.6-3.1-1.1-4.8-1.7c-1.7-0.5-3.4-1.1-5.2-1.6c-1.8-0.5-3.5-1.1-5.3-1.6c-1.8-0.5-3.6-1.1-5.3-1.6
				c-1.8-0.5-3.5-1.1-5.1-1.6c-1.6-0.5-3.3-1-4.7-1.6c-0.8-0.3-1.4-0.6-2.1-0.9c-0.3-0.2-0.6-0.3-0.9-0.5c-0.3-0.2-0.6-0.4-0.9-0.5
				c-2.3-1.5-4.1-3-5.3-4.1c-0.6-0.5-1.1-1-1.4-1.3c-0.3-0.3-0.5-0.5-0.5-0.5l-0.5,0.4c0,0,0.2,0.2,0.4,0.5c0.3,0.3,0.7,0.8,1.3,1.4
				c0.6,0.6,1.3,1.3,2.1,2.1c0.9,0.8,1.9,1.6,3,2.4c0.3,0.2,0.6,0.4,0.9,0.6c0.3,0.2,0.6,0.4,1,0.6c0.7,0.4,1.4,0.8,2.2,1.1
				c1.5,0.6,3.1,1.2,4.8,1.8c3.3,1.1,6.9,2.2,10.5,3.3c3.6,1.1,7.2,2.1,10.5,3.1c1.7,0.5,3.3,1,4.8,1.5c1.5,0.5,2.9,1,4.3,1.5
				c2.6,1,4.8,1.8,6.3,2.4c1.5,0.6,2.4,0.9,2.4,0.9L616.3,81.4z"/>
			<path class="st40" d="M612,82.7c0,0-0.6-0.1-1.8-0.2c-0.6-0.1-1.3-0.1-2-0.1c-0.8,0-1.7,0-2.7,0c-1,0.1-2,0.1-3.2,0.3
				c-1.1,0.2-2.3,0.4-3.5,0.9c-0.3,0.1-0.6,0.2-0.9,0.4c-0.3,0.1-0.6,0.3-0.8,0.4c-0.3,0.1-0.6,0.3-0.8,0.4
				c-0.3,0.1-0.5,0.2-0.8,0.3c-1.1,0.4-2.3,0.8-3.5,1.1c-0.3,0.1-0.6,0.2-0.9,0.2l-0.9,0.2c-0.6,0.1-1.2,0.2-1.8,0.3
				c-1.2,0.2-2.4,0.3-3.6,0.4c-1.2,0.1-2.3,0.1-3.4,0c-0.5,0-1.1-0.1-1.6-0.1c-0.3,0-0.5,0-0.7-0.1c-0.2,0-0.5-0.1-0.7-0.1
				c-0.5-0.1-0.9-0.1-1.3-0.2c-0.4-0.1-0.8-0.2-1.2-0.3c-0.4-0.1-0.7-0.2-1-0.3c-0.3-0.1-0.6-0.2-0.9-0.3c-1-0.4-1.6-0.7-1.6-0.7
				L572,86c0,0,0.1,0.1,0.4,0.2c0.3,0.2,0.7,0.4,1.2,0.7c0.3,0.1,0.6,0.2,0.9,0.4c0.3,0.1,0.7,0.3,1,0.4c0.4,0.1,0.8,0.3,1.2,0.4
				c0.4,0.1,0.9,0.2,1.4,0.3c0.2,0.1,0.5,0.1,0.7,0.2c0.3,0,0.5,0.1,0.8,0.1c0.5,0.1,1.1,0.2,1.6,0.2c1.1,0.1,2.3,0.1,3.6,0.1
				c1.2,0,2.5-0.1,3.8-0.3c0.6-0.1,1.3-0.2,1.9-0.3l1-0.2c0.3-0.1,0.6-0.2,1-0.2c1.3-0.3,2.5-0.7,3.8-1.2c0.3-0.1,0.6-0.3,0.9-0.4
				c0.3-0.1,0.6-0.3,0.8-0.4c0.3-0.1,0.5-0.3,0.8-0.4c0.2-0.1,0.5-0.3,0.8-0.4c1-0.4,2.1-0.7,3.2-1c0.3-0.1,0.5-0.1,0.8-0.2
				c0.3,0,0.5-0.1,0.8-0.1c0.5-0.1,1-0.1,1.5-0.2c1.9-0.2,3.5-0.3,4.6-0.3c1.1,0,1.7,0,1.7,0L612,82.7z"/>
		</g>
		<g class="st41">
			<path class="st38" d="M614.4,90.5c0.6,0.4,0.3,2-0.3,4.1c-0.3-0.2-0.7,0.7-0.8,0.9c-0.4,0.8-0.8,1.5-1.2,2.3
				c-0.8,1.5-1.6,3-2.3,4.5c-1.8,3.5-3.6,7-5.5,10.5c-0.5,0.9-5.5,10.3-5.4,10.3c-1.5-0.1-3.3-0.4-3.9-1.7c-0.7-1.4,0.3-3,1.2-4.3
				c2.3-3.2,4.2-6.7,6-10.2c2.4-4.5,4.9-8.9,7.3-13.4C611.3,91.5,613.3,89.8,614.4,90.5z"/>
		</g>
		<g class="st42">
			<path class="st38" d="M602.8,105.8c1-0.4,2.1-0.6,3,0c0.6,0.4,0.9,1.1,1.1,1.9c-0.9,1.7-1.8,3.4-2.6,5
				c-0.5,0.9-5.5,10.3-5.4,10.3c-1.5-0.1-3.3-0.4-3.9-1.7c-0.7-1.4,0.3-3,1.2-4.3c2.3-3.2,4.2-6.7,6-10.2
				C602.4,106.5,602.6,106.1,602.8,105.8z"/>
		</g>
		<g class="st43">
			<path class="st44" d="M607.7-3.5c-3,2.1-5.9,4.3-8.8,6.6c-0.7-4.1-1-8.3-1.1-12.5c-0.1-2.9,0-5.9,1.5-8.4c2-3.3,6-5,9.4-6.5
				c1.7-0.7,3.4-1.4,5.2-2c1.7-0.6,3-1.6,4.5-2.5c0.8-0.4,1.5-0.9,2.3-1.3c0.4-0.2,0.8-0.5,1.3-0.6c0.3-0.1,0.7-0.1,1-0.3
				c0.8-0.4,3.1-2.1,3.4,0.1c0.2,1.4-1.8,1.6-2.6,2.2c-1.2,1-1.8,2.7-2.2,4.2c-0.7,2.6-0.7,5.3-0.8,7.9c0,1.8,0,3.6,0,5.5
				c-0.1,0.1-0.3,0.1-0.4,0.2C615.8-9.1,611.7-6.3,607.7-3.5z"/>
			<path class="st44" d="M625.8-12.9c0.3-2.8,0.8-5.6,1.6-8.4c0.5-1.9,1.1-3.7,2.3-5.3c2-2.5,5.2-3.7,8.3-4.7
				c4.4-1.5,8.9-2.8,13.4-4.1c0.9-0.3,2.4-0.1,2.3,0.8c-5.1,2.5-9,7.5-9.9,13.1c-0.3,1.5-0.3,3-0.3,4.6c-3.3,0.7-6.7,1.3-10,2.1
				C630.9-14.2,628.3-13.7,625.8-12.9z"/>
			<path class="st44" d="M577.1,27.2c-0.9-1.2-1.7-2.5-2.5-3.8c-1.4-2.5-2.4-5.3-3.5-8c-0.7-2-1.5-4-1.4-6.2
				c0.1-2.8,1.6-5.3,3.4-7.4c1.8-2.1,4-3.8,5.9-5.8c2.2-2.2,4-4.8,6.7-6.5c1.2-0.7,2.4-1.2,3.6-1.9c2-1.2,3.7-2.8,5.3-4.4
				c0.5,1.6-0.6,3.3-1.4,4.8c-3,5.7-1.4,12.7,0.6,18.8c0,0.1,0.1,0.2,0.1,0.3c-4.8,4.2-9.3,8.9-13.1,14.1
				C579.6,23.1,578.3,25.1,577.1,27.2z"/>
			<path class="st44" d="M688.3,12.6c3.8-2,7.8-4.2,9.7-8c1-2.1,1.3-4.7,3-6.3l0.2,0c1.1,1.5,1.1,3.6,1.4,5.4
				c0.3,2.2,0.8,4.3,1.6,6.4c0.5,1.5,1.5,2.8,1.8,4.3c0.3,1.8-0.6,3.3-1.7,4.7c-1.3,1.7-2.7,3.3-4,5c-1,1.2-1.9,2.4-3.2,3.3
				c-1.3,1-2.9,1.5-4.5,2.1c-1.7,0.6-3.3,1.2-5,1.8c0.3-6.1,0.4-12.2,0.3-18.3C687.9,12.8,688.1,12.7,688.3,12.6z"/>
			<path class="st44" d="M678.6,90.5c1.2,0.3,2.4,0.6,3.7,0.9c5.5,1.2,11.2,1.3,16.8,0.4l0,0.2c0.6,1.2,0,2.6-0.6,3.8
				c-1.1,2.4-2.4,4.7-4.5,6.4c-2.1,1.8-4.6,2.9-6.6,4.7c-1.6,1.3-2.3,2.3-4.4,2.4c-1.9,0-3.9-0.6-5.7-1.2c-3.5-1.2-6.7-3.1-9.9-4.9
				c-2.1-1.1-4.1-2.1-6.1-3c4.9-3.1,9.4-6.7,13.2-10.9C675.8,89.7,677.2,90.1,678.6,90.5z"/>
			<path class="st44" d="M683.6,73.3c0.7-2.5,1.1-5.1,1.4-7.6c1.6-0.1,3.2-0.3,4.8-0.7c1.7-0.5,3.3-1.3,4.9-2.1
				c4.2-2.1,8.4-4.3,11.9-7.5c2.3-2.1,2.7-0.1,2.2,2c-0.4,1.8-0.1,3.6-0.2,5.4c-0.2,5.3-1.2,10.8-3.8,15.5c-1,1.9-2.4,3.7-4.2,5
				c-2.5,1.8-5.7,2.3-8.7,2.8c-3.5,0.6-7,1.1-10.5,0.8c-1.4-0.1-2.8-0.4-4.2-0.7C680,82.2,682.2,78,683.6,73.3z"/>
			<path class="st44" d="M576,75.8c3.2,8.4,6.4,16.9,11,24.6c-3.8-0.9-7.4-2.3-10.5-4.5c-4.2-3-7.4-7.4-8.9-12.4
				c-0.8-2.8-1.1-5.9-2.7-8.4c-1.6-2.5-4.4-4.1-6.5-6.2c-3.1-3.1-4.7-7.4-5.3-11.7c-0.3-2-0.4-4.1-0.4-6.2c0-1.7,0-3.6-0.4-5.3
				c-0.1-0.7-0.4-1.5-0.1-2.2c0.1-0.1,0.2-0.3,0.4-0.2c0.1,0,0.2,0.1,0.2,0.1c0.3,0.3,0.5,0.8,0.8,1.2c0.4,0.5,0.9,0.8,1.4,1.2
				c0.9,0.6,1.7,1.2,2.6,1.7c0.3,0.2,0.6,0.2,0.9,0.3c0.5,0.2,1,0.5,1.5,0.7c1.9,0.9,3.9,1.8,5.8,2.7c1.7,0.8,3.1,1.7,4.5,2.8
				c0,0.4,0.1,0.9,0.1,1.3C571,62.4,573.5,69.1,576,75.8z"/>
			<path class="st44" d="M563.3,14.4c0.5-0.7,2-2,2.4-0.7c0.2,0.6-0.6,2.5-0.6,3.3c0.1,3.1,1.2,6.2,3.6,8.4c1.3,1.2,2.9,2,4.4,3
				c0.8,0.5,1.6,1.1,2.4,1.6c-3.1,6.2-5.1,12.9-5.4,19.8c-3.5-2.4-7.1-4.7-10.6-7.1c-0.9-0.6-1.8-1.2-2.4-2.1
				c-0.5-0.8-0.8-1.7-1-2.6c-0.5-1.7-0.9-3.5-1.1-5.3C554.7,25.8,559.1,19.8,563.3,14.4z"/>
			<path class="st44" d="M643.8,109.2c4.6-1.9,9.2-4.1,13.6-6.6c1,0.3,1.9,0.6,2.8,1c1.7,0.8,3.2,1.8,4.8,2.8c3.2,2,6.7,3.5,10.2,5
				c-2.4,3.7-6.5,6-10.7,7.3c-4.2,1.3-8.7,1.8-12.9,2.9c-3.2,0.8-5.8,2-8.6,3.8c-3.1,2.1-6.7,3.5-10.4,4.2c-1.4,0.3-2.9,0.4-4.3,0.1
				c-0.9-0.2-1.8-0.6-2.6-1.1c-5.7-3-10.2-8.3-12.3-14.5c-0.1-0.4-0.3-0.8-0.4-1.3c-0.3-1-0.5-2.1-0.7-3.1c4.1,1.4,8.2,3.1,12.4,3.6
				C631.2,114,637.7,111.7,643.8,109.2z"/>
			<path class="st44" d="M699.5-41.7l-0.5,0C699.2-41.7,699.3-41.7,699.5-41.7z"/>
			<path class="st44" d="M685-11.6c-1.7-4.2-5-8-9.4-9.2c-3.2-0.9-6.6-0.5-9.8,0c-3.8,0.6-7.6,1.2-11.4,1.9c0.6-2.2,1.2-4.4,2.1-6.5
				c1.1-2.8,2.5-5.7,5-7.5c2.2-1.6,5.1-2.1,7.6-3.1c2-0.8,3.9-2,5.9-2.9c2.2-0.9,4.5-1.5,6.8-1.9c5.9-1.1,12-1.4,18-0.9l-0.2,0
				c-0.2,0-0.3,0-0.5,0l0.5,0c0.3,0.1,0.7,0.3,0.9,0.6c0.3,0.4,0.4,1,0.4,1.5c0.3,2.9,0.7,5.8,0.8,8.7c0.1,1.7,0.1,3.3,0.1,5
				c0.1,3.5,1,7.6,0.5,11c-0.4,2.6-1.8,5.8-3.1,8.1c-2,3.5-5,6.2-8,8.9c-1.2,1.1-2.4,2.1-3.6,3.1c0-1.2-0.1-2.3-0.2-3.5
				C687.1-2.8,686.7-7.4,685-11.6z"/>
			<path class="st44" d="M687,39.3c4.2-1.9,8.1-4.1,11.9-6.7c1.8-1.2,3.5-2.6,4.8-4.3c1.1-1.5,1.7-3.2,2.4-4.9
				c0.1-0.2,0.8,0.5,0.9,0.6c0.3,0.4,0.2,0.8,0.3,1.3c0.1,1.1,0.3,2.1,0.5,3.2c0.3,2.4,0.7,4.8,1.1,7.2c0.6,3.6,1.7,7.3,1.1,10.9
				c-0.7,4.5-5.7,7-9.5,8.6c-3.2,1.3-6.4,2.6-9.7,3.8c-1.8,0.7-3.5,1.3-5.3,1.9c0.1-0.7,0.1-1.4,0.2-2
				C686.1,52.3,686.6,45.8,687,39.3z"/>
		</g>
		<g class="st45">
			<path class="st46" d="M637.1,36.8c2.9-3.5,6.3-6.7,9.9-9.5c1.7-1.3,3.8-2.5,5.7-1.6c2.5,1.2,2.1,4.8,1.2,7.4
				c-2.7,7.5-6.7,14.7-7.8,22.6c-0.7,5.2-0.1,10.6-1.8,15.5c-1.4,4-4.1,7.3-7.1,10.2c-3,3-6.3,5.7-10.1,7.3
				c-3.9,1.6-8.4,2.1-12.3,0.5c-7.9-3.3-10.3-13.9-7.3-21.9c2.9-8,9.7-13.9,16.1-19.4c5.5-4.7,10.9-9.3,16.4-14"/>
		</g>
		<g class="st47">
			<path class="st48" d="M610.7,92.8c3.9-8.5,8.9-16.5,14.7-23.8c1.9-2.3,3.9-4.6,5.4-7.2c2.3-4,3.7-9.1,7.8-11.3
				c0.3,0,0.4,0.5,0.2,0.8c-1.5,3.4-2.9,6.8-4.4,10.2c-1.1,2.5-2.2,5.1-3.7,7.3c-1.7,2.4-3.8,4.5-5.7,6.8c-4.5,5.6-7,12.5-10.5,18.8
				c-0.7,1.2-1.9,2.6-3.2,2c-0.8-0.3-1.2-1.4-0.9-2.3c0.2-0.9,0.8-1.6,1.4-2.3"/>
		</g>
		<g class="st49">
			<path class="st50" d="M569.7,86.3c-0.8-2.9-1.6-5.9-2.4-8.8c-0.4-1.5-0.9-3.1-1.9-4.3c-0.8-1-2-1.6-3-2.4c-2-1.6-3.5-3.9-4-6.4
				c2.6,2,5.1,4.1,7.7,6.1c1.8,1.5,3.7,2.9,4.9,4.9c3.1,5,1.6,12,5.3,16.5c0.1,0.7-1.1,0.6-1.7,0.2c-2.3-1.8-4.1-4.2-5.1-6.9"/>
		</g>
		<g class="st49">
			<path class="st50" d="M604,33.5c-0.4-2.8-1.8-5.3-3.1-7.8c-3.4-6.4-6.3-13.2-8.5-20.1c-0.7,0.8-0.5,2-0.3,3
				c1.1,5.8,2.2,11.6,4.9,16.8c1.5,2.9,3.4,5.5,5.8,7.8c0.3,0.3,0.8,0.5,0.9,0.1"/>
		</g>
		<g class="st49">
			<path class="st50" d="M655.8,44.4c2.5,1.8,5.7,2.5,8.8,2.4s6.1-0.9,9.1-1.8c6.9-2,13.8-4.4,20.5-7.1c-10,8-23.1,11.9-35.8,10.8
				c-1.2-0.1-2.5-0.3-3.4-1.2c-0.8-0.9-0.8-2.6,0.3-3.1"/>
		</g>
		<g class="st49">
			<path class="st50" d="M695.2,100.9c0-0.8-0.8-1.7-1.5-1.4c-0.3,0.1-0.4,0.4-0.6,0.7c-0.6,0.9-1.7,1.4-2.6,1.8
				c-3.2,1.5-6.4,3-9.6,4.5c-0.2,0.1-0.5,0.2-0.5,0.5c0,0.1,0,0.2,0.1,0.3c0.4,0.8,1.3,1.3,2.2,1.3s1.8-0.3,2.6-0.6
				c3.6-1.7,6.2-5,9.7-6.9"/>
		</g>
		<g class="st49">
			<path class="st50" d="M566.1,46.3c-1.5-1.3-3.1-2.5-4.8-3.5c-1-0.7-2.1-1.3-2.8-2.2c-0.8-1.1-1.2-2.4-1.5-3.7
				c-0.8-3.4-1.7-7.1-0.5-10.4c0.3,1.5,0.6,2.9,0.9,4.4c0.8,3.9,1.7,8,4.5,10.8c1.6,1.6,3.7,2.7,4.6,4.8"/>
		</g>
		<g class="st49">
			<path class="st50" d="M645.2,11c0.7,1.1,1.3,2.4,1.5,3.7c0,0.2,0.1,0.5,0,0.7c-0.2,0.5-0.8,0.6-1.3,0.6c-1.1-0.2-1.9-1.1-2.4-2
				c-0.6-1.2-0.9-2.5-0.9-3.8c0-0.8,0.2-1.6,0.2-2.4c0-1.6-0.4-3.3,0.1-4.8c0.5,0.6,0.8,1.4,0.9,2.2c0.5,2.5,0.7,5.2,2.2,7.3"/>
		</g>
		<g class="st49">
			<path class="st50" d="M696.3-6c-0.4,1.7-1.9,3-3.3,4.1c-7.2,5.8-14.4,11.6-21.6,17.4c1.9-4.5,4.8-8.8,8.9-11.4
				c1.6-1,3.3-1.8,4.9-2.7c2-1.2,3.9-2.7,5.7-4.2c1.6-1.3,3.1-2.5,4.7-3.8"/>
		</g>
		<g class="st43">
			<path class="st51" d="M624.4,124.6c-5.3-7.3-9.3-16.3-7.6-25.2c0.2-0.9,0.5-1.9,1.4-2.3c0.8-0.3,1.7,0.2,2.5,0.7
				c1.8,1.2,3.6,2.4,4.8,4.1c1.2,1.6,1.9,3.6,2.7,5.5c2,4.5,5.1,8.4,9,11.4c0.8,0.6,1.6,1.2,2.1,2c0.5,0.8,0.5,2-0.3,2.7
				c-0.4,0.3-0.8,0.4-1.3,0.5c-2.6,0.6-5.2,1.1-7.9,1.5c-1.3,0.2-2.7,0.4-4,0c-1.3-0.4-2.5-1.4-2.6-2.8"/>
		</g>
		<g class="st43">
			<path class="st51" d="M667.4-2.2c0.5,2.4,0.3,4.9-0.5,7.2c-0.5,1.5-1.5,3.1-3.1,3.2c-2.1,0.1-3.3-2.4-3.5-4.6
				c-0.1-1.7,0-3.4,0.2-5.1c0.7-7.8,1.4-15.9,5.5-22.5c1.6,4.4-0.7,9.4,0.2,14c0.3,1.5,0.9,2.9,1.2,4.4c0.3,1.9,0.1,3.8-0.2,5.7"/>
		</g>
		<g class="st43">
			<path class="st51" d="M632.3,44.9c-9.2-8.3-15.9-20.6-14.4-32.9c1.7,1,2.3,3.1,2.9,4.9c2.8,8.3,8,15.8,14.8,21.4
				c1.1,0.8,2.2,1.8,2.5,3.1c0.4,1.9-1.5,3.7-3.4,3.8c-1.9,0.1-3.8-1-5.2-2.3"/>
		</g>
		<g class="st43">
			<path class="st51" d="M706.5,59.4c0.5,5.8-1.2,11.8-4.6,16.6c-1.4,1.9-3.3,3.8-5.6,3.9c-2.9,0.1-5.3-2.5-8.1-3.1
				c-1.1-0.2-2.2-0.2-3.1-0.9c-1.1-0.9-1.1-2.7-0.3-3.9c0.8-1.2,2.2-1.9,3.6-2.3c1.4-0.4,2.8-0.6,4.2-1.1c2.1-0.9,3.9-2.5,5.6-4
				c2.1-1.7,4.3-3.2,6.6-4.6c0.3-0.2,0.6-0.3,1-0.2c0.3,0.1,0.5,0.6,0.2,0.8"/>
		</g>
		<g class="st43">
			<path class="st51" d="M705.4,31.9c0.8,2.8,1.6,5.7,1.7,8.6c0.1,2.9-0.7,6-2.7,8.2c-3,3.2-7.8,3.8-12.1,4.1
				c-0.6,0-1.2,0.1-1.7-0.2c-0.9-0.4-1.3-1.5-1.2-2.5c0.1-1,0.7-1.9,1.2-2.7c2.1-3.5,4.4-7.2,8.1-9.1c1.1-0.6,2.3-1,3.1-2
				c0.6-0.8,0.8-1.9,1.3-2.7c0.6-0.9,1.9-1.4,2.6-0.7"/>
		</g>
		<g class="st43">
			<path class="st51" d="M619.7,58.4c-1.6-3.5-5.2-5.7-8.1-8.3c-1.8-1.6-3.4-3.5-4.9-5.4c-1.7-2.1-3.4-4.3-4.9-6.5
				c-0.3-0.5-0.7-1.3-0.2-1.6c0.4-0.3,0.8,0,1.2,0.2c3.6,2.2,7.1,4.3,10.7,6.5c1.7,1,3.4,2.1,4.7,3.5c1.5,1.6,2.4,3.7,3.3,5.8
				c1,2.3,2.1,4.8,1.8,7.4c-2.2-0.1-4.3-1.7-5-3.8"/>
		</g>
		<g class="st52">
			<path class="st46" d="M613.1,89.6c-2.1-1.3-4.3-2.7-6.4-4c-2-1.2-4.1-2.5-5.6-4.3c-3.1-3.6-3.9-8.7-3.1-13.4
				c0.9-4.7,3.2-8.9,5.6-13c2.2-3.7,4.6-7.4,7.8-10.1c2.3-1.9,4.9-3.4,7.6-4.8c7.1-3.8,14.3-7.4,20.6-12.4c3.7-2.9,7.1-6.4,11.4-8.3
				c1.9-0.8,4-1.3,6-0.8c2,0.5,3.8,2.1,4,4.2c0.1,1.2-0.3,2.3-0.7,3.5c-2.5,6.8-4.9,13.6-7.4,20.4c-0.7,1.8-1.3,3.7-1.4,5.6
				c-0.1,3.3,1.5,6.4,2,9.7c0.6,4.1-0.6,8.3-2,12.3c-2.7,7.6-6.9,15.5-14.5,18.3c-5.5,2-11.5,0.9-17.1-0.6c-1.4-0.4-2.9-0.8-4-1.7
				c-1.1-0.9-1.9-2.5-1.4-3.9"/>
		</g>
	</g>
</g>
</svg>
